<svg xmlns="http://www.w3.org/2000/svg" width="64" height="64" viewBox="0 0 64 64" fill="none">
  <rect width="64" height="64" rx="12" fill="#5a7fff" />
  <path d="M32 16C23.164 16 16 23.164 16 32C16 40.836 23.164 48 32 48C40.836 48 48 40.836 48 32C48 23.164 40.836 16 32 16ZM32 20C38.617 20 44 25.383 44 32C44 38.617 38.617 44 32 44C25.383 44 20 38.617 20 32C20 25.383 25.383 20 32 20Z" fill="white" />
  <path d="M32 24C27.582 24 24 27.582 24 32C24 36.418 27.582 40 32 40C36.418 40 40 36.418 40 32C40 27.582 36.418 24 32 24ZM32 28C34.209 28 36 29.791 36 32C36 34.209 34.209 36 32 36C29.791 36 28 34.209 28 32C28 29.791 29.791 28 32 28Z" fill="white" />
  <path d="M32 12C31.448 12 31 12.448 31 13V19C31 19.552 31.448 20 32 20C32.552 20 33 19.552 33 19V13C33 12.448 32.552 12 32 12Z" fill="white" />
  <path d="M32 44C31.448 44 31 44.448 31 45V51C31 51.552 31.448 52 32 52C32.552 52 33 51.552 33 51V45C33 44.448 32.552 44 32 44Z" fill="white" />
  <path d="M52 31H46C45.448 31 45 31.448 45 32C45 32.552 45.448 33 46 33H52C52.552 33 53 32.552 53 32C53 31.448 52.552 31 52 31Z" fill="white" />
  <path d="M19 31H13C12.448 31 12 31.448 12 32C12 32.552 12.448 33 13 33H19C19.552 33 20 32.552 20 32C20 31.448 19.552 31 19 31Z" fill="white" />
</svg>
